# xmcd CD database file
# Copyright (C) 1996 Ti Kan
#
# Track frame offsets:
#  150
#  12852
#  25570
#  37872
#  48860
#  60932
#  73592
#  86522
#  99650
#  113405
#  126290
#  138182
#  150167
#  162975
#  176242
#  189420
#  201995
#  213160
#  226190
#  238547
#  252040
#  262252
#
# Disc length: 3669 seconds
#
# Revision: 2
# Processed by: cddbd v1.4PL0 Copyright (c) Steve Scherf et al.
# Submitted via: Gronk 1.4
#
DISCID=130e5316
DTITLE=Amos Milburn - Blues, Barrelhouse and Boogie Woogie [CD2]
DYEAR=1900
DGENRE=blues
TTITLE0=Hold Me Baby
TTITLE1=Chicken Shack Boogie
TTITLE2=Hard Driving Blues
TTITLE3=I'm Gonna Leave You
TTITLE4=Pool Playing Blues
TTITLE5=Rocky Road Blues (Take 1)
TTITLE6=Rocky Road Blues (Take 2)
TTITLE7=Lonesome For The blues
TTITLE8=Slow Down Blues
TTITLE9=Anybody's Blues
TTITLE10=It Took A Long, Long Time
TTITLE11=Wolf On The River
TTITLE12=Frank's Blues
TTITLE13=Empty Arms Blues
TTITLE14=A and M Blues
TTITLE15=Won't You Kinda Think It Over
TTITLE16=Jitterbug Fashion Parade
TTITLE17=My Luck Is Bound To Change
TTITLE18=Roomin' House Boogie
TTITLE19=Walkin' Blues
TTITLE20=Blue And Lonesome
TTITLE21=Let's Make Christmas Merry, Baby
EXTD=Capitol 723 8 36879 2 3\n\nSubmitted 6/5/97\n[Jmccoy@efn.org]
EXTT0=
EXTT1=
EXTT2=
EXTT3=
EXTT4=
EXTT5=
EXTT6=
EXTT7=
EXTT8=
EXTT9=
EXTT10=
EXTT11=
EXTT12=
EXTT13=
EXTT14=
EXTT15=
EXTT16=
EXTT17=
EXTT18=
EXTT19=
EXTT20=
EXTT21=
PLAYORDER=
